<?xml version="1.0" standalone="no"?>
<!DOCTYPE svg PUBLIC "-//W3C//DTD SVG 20010904//EN"
 "http://www.w3.org/TR/2001/REC-SVG-20010904/DTD/svg10.dtd">
<svg version="1.0" xmlns="http://www.w3.org/2000/svg"
 width="1280.000000pt" height="1280.000000pt" viewBox="0 0 1280.000000 1280.000000"
 preserveAspectRatio="xMidYMid meet">
<metadata>
Created by potrace 1.15, written by Peter Selinger 2001-2017
</metadata>
<g transform="translate(0.000000,1280.000000) scale(0.100000,-0.100000)"
fill="#3f51b5" stroke="none">
<path d="M6275 12794 c-197 -29 -376 -98 -525 -201 -89 -63 -5440 -5408 -5522
-5518 -95 -126 -158 -261 -200 -430 -32 -129 -32 -361 0 -490 39 -156 96 -285
179 -405 63 -89 5408 -5440 5518 -5522 126 -95 261 -158 430 -200 129 -32 361
-32 490 0 169 42 304 105 430 200 110 82 5455 5433 5518 5522 83 120 140 249
179 405 32 129 32 361 0 490 -39 156 -96 285 -179 405 -63 89 -5408 5440
-5518 5522 -189 143 -399 216 -640 223 -71 2 -143 1 -160 -1z m225 -915 c66
-29 5339 -5301 5375 -5373 32 -63 33 -142 4 -206 -15 -35 -304 -329 -1322
-1347 -716 -717 -1305 -1303 -1309 -1303 -5 0 -8 7 -8 15 0 27 -30 76 -121
196 -399 529 -656 1058 -724 1494 -25 161 -17 406 19 532 70 251 235 456 456
568 124 63 184 77 356 84 153 6 164 8 202 33 100 67 137 177 91 278 -25 56
-53 86 -104 113 l-40 22 -1825 3 c-1348 2 -1839 0 -1879 -8 -99 -22 -171 -112
-171 -216 0 -86 44 -158 124 -202 29 -16 127 -17 1352 -22 l1322 -5 -64 -85
c-166 -219 -257 -487 -270 -790 -26 -592 249 -1278 823 -2048 105 -141 118
-156 170 -179 l55 -26 -1228 -1229 c-955 -954 -1240 -1234 -1278 -1253 -68
-34 -144 -34 -212 0 -38 19 -309 284 -1208 1184 l-1159 1159 107 184 c59 101
279 477 489 835 l382 653 411 0 412 0 13 33 c19 44 18 203 -1 242 l-15 30
-887 3 -887 2 -17 -32 c-22 -41 -25 -186 -6 -240 l14 -38 239 0 c131 0 239 -2
239 -4 0 -6 -782 -1340 -791 -1351 -6 -6 -514 495 -1344 1325 -1040 1039
-1341 1346 -1360 1384 -34 68 -34 144 0 212 36 72 5309 5344 5375 5373 28 13
66 21 100 21 34 0 72 -8 100 -21z"/>
<path d="M4406 9674 c-140 -34 -288 -147 -353 -269 -48 -92 -67 -168 -66 -270
0 -157 49 -271 163 -385 114 -114 228 -162 385 -163 106 0 182 19 274 70 167
93 281 288 281 482 0 78 -33 201 -72 270 -40 71 -148 178 -215 214 -113 60
-273 81 -397 51z"/>
<path d="M7740 9180 c-4 -3 -14 -25 -21 -50 -11 -36 -14 -212 -14 -915 0 -751
3 -876 16 -915 l15 -45 109 -3 c59 -1 112 1 117 6 5 5 15 43 22 83 l12 73 225
33 c123 17 236 34 251 37 l27 5 3 -99 3 -100 -191 0 -192 0 -13 -32 c-21 -49
-18 -177 4 -211 l17 -27 593 0 c325 0 597 4 604 8 34 21 45 163 19 227 l-15
35 -165 0 -165 0 -3 133 c-2 72 -3 133 -2 134 0 2 132 22 292 45 l292 43 0
451 c0 352 -3 453 -12 457 -7 2 -365 100 -795 217 l-783 213 0 48 c0 50 -19
149 -29 149 -56 4 -215 4 -221 0z"/>
<path d="M4211 8510 c-123 -26 -260 -128 -320 -239 -63 -119 -61 -72 -61
-1331 0 -1236 1 -1271 52 -1382 54 -115 169 -204 297 -228 34 -6 434 -10 1077
-10 l1024 0 0 -830 c0 -806 1 -831 20 -883 26 -70 75 -125 141 -162 49 -27 63
-30 144 -30 81 0 95 3 144 30 66 37 115 92 141 163 20 53 20 70 18 1140 l-3
1087 -32 66 c-39 80 -120 159 -200 197 l-58 27 -702 3 -703 3 0 771 0 772 213
-210 c116 -115 240 -235 274 -267 34 -32 71 -71 83 -87 11 -16 46 -41 78 -57
l57 -28 345 0 c389 0 397 1 465 69 40 41 71 115 61 148 -2 7 -7 25 -10 40 -8
37 -60 94 -110 121 -39 21 -55 22 -328 25 l-287 3 -133 134 c-432 433 -820
804 -891 852 -142 95 -150 97 -472 99 -154 2 -300 -2 -324 -6z"/>
<path d="M6924 7409 c-18 -5 -46 -25 -62 -44 -70 -78 -68 -200 4 -283 l32 -37
298 -3 c343 -3 342 -3 385 85 45 92 21 212 -54 267 -27 20 -42 21 -300 23
-150 1 -286 -2 -303 -8z"/>
</g>
</svg>
