<?xml version="1.0" standalone="no"?>
<!DOCTYPE svg PUBLIC "-//W3C//DTD SVG 20010904//EN"
 "http://www.w3.org/TR/2001/REC-SVG-20010904/DTD/svg10.dtd">
<svg version="1.0" xmlns="http://www.w3.org/2000/svg"
 width="1171.000000pt" height="1280.000000pt" viewBox="0 0 1171.000000 1280.000000"
 preserveAspectRatio="xMidYMid meet">
<metadata>
Created by potrace 1.15, written by Peter Selinger 2001-2017
</metadata>
<g transform="translate(0.000000,1280.000000) scale(0.100000,-0.100000)"
fill="#ffffff" stroke="none">
<path d="M1315 12793 c-16 -2 -72 -13 -124 -24 -716 -160 -1088 -945 -760
-1603 302 -604 1067 -805 1632 -429 212 141 382 373 452 616 35 123 45 195 45
318 0 560 -405 1030 -960 1114 -88 14 -212 17 -285 8z"/>
<path d="M7946 11748 c-21 -34 -43 -155 -55 -307 -14 -178 -15 -3083 -1 -3271
11 -149 23 -224 46 -288 l16 -42 231 2 232 3 18 53 c9 30 23 100 29 155 6 56
12 103 13 105 3 4 997 152 1023 152 4 0 8 -80 8 -179 1 -98 5 -188 9 -200 l6
-21 -385 0 c-377 0 -386 0 -404 -21 -70 -74 -75 -392 -8 -495 l16 -24 1229 0
1229 0 16 25 c59 90 64 361 9 469 -9 17 -21 34 -27 38 -6 4 -160 8 -343 8
l-332 0 5 173 c3 94 1 217 -4 272 -5 55 -9 101 -8 102 2 3 549 83 1014 150
l182 26 0 921 0 921 -1614 440 -1615 440 -6 75 c-9 122 -34 262 -53 300 l-17
35 -222 3 c-221 2 -222 2 -237 -20z"/>
<path d="M820 10403 c-420 -74 -732 -385 -805 -802 -23 -129 -22 -4701 0
-4859 44 -308 96 -432 244 -585 109 -113 227 -181 400 -230 l76 -22 2122 -3
2123 -2 2 -1698 3 -1697 27 -73 c37 -102 82 -174 154 -246 110 -110 249 -173
404 -183 299 -18 576 187 645 479 22 94 22 4307 0 4412 -51 240 -190 431 -402
552 -101 58 -206 91 -333 104 -66 6 -571 10 -1411 10 l-1309 0 0 1567 0 1568
138 -136 c503 -497 894 -878 936 -911 27 -22 62 -59 77 -83 32 -51 115 -120
179 -148 104 -47 108 -47 821 -47 649 0 680 1 742 20 175 54 288 172 317 333
36 194 -110 393 -331 452 -44 12 -160 15 -609 15 l-556 0 -44 53 c-25 29 -191
197 -370 372 -1502 1478 -1502 1478 -1613 1555 -192 134 -264 171 -422 217
-54 15 -120 17 -620 19 -308 1 -571 0 -585 -3z"/>
<path d="M6310 8159 c-60 -12 -117 -55 -165 -125 -55 -79 -78 -157 -77 -258 0
-137 64 -272 161 -339 l46 -32 580 -3 c395 -2 592 0 617 8 88 25 187 170 208
303 21 133 -26 283 -115 372 -83 84 -50 80 -665 82 -300 1 -565 -3 -590 -8z"/>
<path d="M3715 7276 c-143 -46 -262 -164 -306 -307 -22 -72 -24 -173 -5 -245
43 -163 193 -304 355 -334 74 -14 7418 -14 7492 0 136 25 260 123 325 255 33
68 38 88 42 166 3 54 0 108 -8 137 -35 128 -135 247 -257 305 l-68 32 -3765 2
c-3022 1 -3773 -1 -3805 -11z"/>
<path d="M232 3733 c-82 -71 -86 -505 -6 -594 17 -18 42 -19 751 -19 l733 0 0
-1378 c0 -867 4 -1409 10 -1462 13 -105 28 -176 47 -212 l14 -28 249 0 c288 0
267 -8 294 110 33 144 37 317 34 1653 l-3 1317 747 0 747 0 19 25 c35 44 47
119 47 290 0 172 -16 256 -55 295 -20 20 -45 20 -1814 20 -1694 0 -1795 -1
-1814 -17z"/>
</g>
</svg>
